<svg xmlns="http://www.w3.org/2000/svg" width="220" height="140" viewBox="0 0 220 140"><g transform="translate(-87.773 -4.038)"><g transform="translate(142.773 15)"><path d="M285.354,22.17a28.771,28.771,0,0,0,6.525-9.68,26.751,26.751,0,0,0,2.035-9.542c0-.186-.012-.422-.035-.7s-.035-.512-.035-.7a6.864,6.864,0,0,1-.175-.773,6.832,6.832,0,0,0-.175-.77q-12.349,2.877-17.54,10.384a31.985,31.985,0,0,0-5.473,18.031,39.365,39.365,0,0,0,7.3-1.191A19.9,19.9,0,0,0,285.354,22.17Z" transform="translate(-222.56 0)" fill="#e9e3e0"/><path d="M131.422,174.268a26.707,26.707,0,0,1-4.841-15.647,24.979,24.979,0,0,1,4.56-14.523,45.535,45.535,0,0,1,8-8.28,36.309,36.309,0,0,0-7.3-7.016,25.68,25.68,0,0,0-14.944-4.561,39.678,39.678,0,0,0-12.139,2.387q-6.876,2.388-10.032,2.384-2.385,0-9.683-2.1A46.677,46.677,0,0,0,72.627,124.8q-12.068,0-19.926,10.105-7.929,10.244-7.929,26.239,0,16.978,10.314,35.292,10.453,18.171,21.118,18.17,3.578,0,9.26-2.384a27.006,27.006,0,0,1,9.962-2.315,31.044,31.044,0,0,1,10.595,2.244q6.383,2.245,9.822,2.244,8.979,0,18.031-13.75a67.707,67.707,0,0,0,8.63-17.54Q136.262,181.216,131.422,174.268Z" transform="translate(-44.773 -97.864)" fill="#e9e3e0"/><rect width="220" height="140" transform="translate(-55 -10.962)" fill="rgba(255,255,255,0)"/></g></g></svg>