<svg xmlns="http://www.w3.org/2000/svg" width="220" height="140" viewBox="0 0 220 140"><g transform="translate(-907 -655)"><rect width="220" height="140" transform="translate(907 655)" fill="rgba(255,255,255,0)"/><path d="M157.977,14.465l.377,21.459h-.185l-6.23-21.459H141.726V41.5h6.756l-.377-22.206h.185L154.957,41.5h9.776V14.465Zm-128.733,0L24.137,41.777h7.378l3.767-24.849h.155l3.677,24.849h7.318L41.386,14.465Zm41.291,0L67.168,35.3h-.185l-3.4-20.831H52.436L51.9,41.777h6.852l.185-24.568H59l4.58,24.568h6.942L75.1,17.209h.185l.185,24.568h6.852l-.652-27.312ZM12.61,34.022a3.712,3.712,0,0,1,.1,1.991c-.185.933-.843,1.836-2.649,1.836a2.42,2.42,0,0,1-2.738-2.457V32.743H0v2.087c0,6.134,4.825,7.94,9.967,7.94,4.921,0,9.028-1.71,9.686-6.194a13,13,0,0,0,0-4.484C18.373,26.327,7.946,24.713,7.229,21.5a3.741,3.741,0,0,1,0-1.465A2.226,2.226,0,0,1,9.686,18.2a2.316,2.316,0,0,1,2.553,2.457v1.65h6.852v-1.9c0-5.949-5.387-6.852-9.22-6.852-4.861,0-8.873,1.62-9.59,6.009a8.189,8.189,0,0,0,.1,3.677c1.088,5.638,10.87,7.288,12.239,10.774Zm88.907,0a3.684,3.684,0,0,1,.1,1.991c-.185.933-.843,1.836-2.649,1.836a2.42,2.42,0,0,1-2.738-2.457V32.743H88.907v2.087c0,6.039,4.735,7.88,9.871,7.88,4.921,0,8.939-1.65,9.59-6.23a13.126,13.126,0,0,0,0-4.484c-1.088-5.668-11.426-7.378-12.143-10.493a3.741,3.741,0,0,1,0-1.465A2.205,2.205,0,0,1,98.683,18.2a2.364,2.364,0,0,1,2.553,2.457v1.65h6.756v-1.9c0-5.949-5.291-6.852-9.124-6.852-4.861,0-8.783,1.525-9.5,6.009a10.613,10.613,0,0,0,.06,3.677c1.124,5.638,10.714,7.193,12.084,10.774Zm23.013,3.647a2.489,2.489,0,0,0,2.649-1.991,3.751,3.751,0,0,0,.1-1.028V14.471h6.942V34.118a9.763,9.763,0,0,1-.1,1.806c-.436,5.136-4.484,6.786-9.5,6.786s-9.028-1.65-9.5-6.786c0-.251-.1-1.28-.1-1.806V14.471h6.942V34.65a3.422,3.422,0,0,0,.1,1.028,2.155,2.155,0,0,0,2.457,1.991Zm57.022-.281a2.639,2.639,0,0,0,2.834-1.991,3.645,3.645,0,0,0,.1-1V30.447h-2.834V26.429h9.686v7.318a14.438,14.438,0,0,1-.1,1.836c-.466,5.016-4.765,6.756-9.59,6.756-4.861,0-9.124-1.746-9.59-6.756a14.486,14.486,0,0,1-.1-1.836V22.226c0-.436.1-1.369.1-1.806.622-5.136,4.735-6.786,9.59-6.786,4.825,0,9.028,1.65,9.59,6.786.1.807.1,1.806.1,1.806v.933h-6.852V21.6a5.445,5.445,0,0,0-.1-1.028,2.468,2.468,0,0,0-2.738-1.991,2.517,2.517,0,0,0-2.738,1.991,5.643,5.643,0,0,0-.1,1.309V34.4a3.337,3.337,0,0,0,.1,1c0,.717.717,1.991,2.649,1.991Z" transform="translate(927 702.068)" fill="#e9e3e0"/></g></svg>