<svg xmlns="http://www.w3.org/2000/svg" width="220" height="140" viewBox="0 0 220 140"><g transform="translate(-590 -655)"><rect width="220" height="140" transform="translate(590 655)" fill="rgba(255,255,255,0)"/><path d="M107.164,95.437a1.773,1.773,0,0,1-1.719-1.8V7.138a1.773,1.773,0,0,1,1.719-1.8h19.922a1.767,1.767,0,0,1,1.764,1.8v86.5a1.764,1.764,0,0,1-1.764,1.8Zm-33.406,0s-1.594-.507-1.594-1.8V40.53c.209-6.973-5.158-12.738-11.829-12.671H23.09c-2.158,0-1.615,1.694-1.615,1.694V93.633a1.931,1.931,0,0,1-1.615,1.8H1.763A1.767,1.767,0,0,1,0,93.633V7.138a1.764,1.764,0,0,1,1.764-1.8H70.818c12.6.089,22.773,10.825,22.817,24.045l.04,64.258a1.759,1.759,0,0,1-1.719,1.8Zm-37.034,0a1.655,1.655,0,0,1-1.615-1.694V43.06a1.669,1.669,0,0,1,1.615-1.694H56.959a1.66,1.66,0,0,1,1.55,1.694V93.743a1.639,1.639,0,0,1-1.594,1.694Z" transform="translate(635.576 687.266)" fill="#e9e3e0"/></g></svg>